<?xml version="1.0"?>
<svg xmlns="http://www.w3.org/2000/svg" xmlns:xlink="http://www.w3.org/1999/xlink" version="1.1" id="Layer_1" x="0px" y="0px" viewBox="0 0 512 512" style="enable-background:new 0 0 512 512;" xml:space="preserve" width="512px" height="512px"><g><g>
	<g>
		<g>
			<path d="M53.333,341.333h405.333c5.896,0,10.667-4.771,10.667-10.667c0-5.896-4.771-10.667-10.667-10.667h-11.178     c-4.93-99.257-77.618-179.813-170.155-190.672v-22.661h21.333c5.896,0,10.667-4.771,10.667-10.667V85.333     c0-23.531-19.135-42.667-42.667-42.667h-21.333c-23.531,0-42.667,19.135-42.667,42.667V96c0,5.896,4.771,10.667,10.667,10.667     h21.333v22.661C142.13,140.188,69.441,220.743,64.512,320H53.333c-5.896,0-10.667,4.771-10.667,10.667     C42.667,336.563,47.438,341.333,53.333,341.333z M224,85.333C224,73.573,233.573,64,245.333,64h21.333     C278.427,64,288,73.573,288,85.333h-21.333h-21.333H224z M256,149.333c90.716,0,164.915,75.651,170.158,170.667H85.842     C91.085,224.984,165.284,149.333,256,149.333z" data-original="#000000" class="active-path" data-old_color="#000000" fill="#C12020"/>
			<path d="M256,173.177c-52.698,0-102.042,29.74-128.76,77.625c-2.875,5.146-1.031,11.646,4.115,14.51     c1.646,0.917,3.427,1.354,5.188,1.354c3.74,0,7.375-1.969,9.323-5.469C168.823,220.063,211.021,194.51,256,194.51     c5.896,0,10.667-4.771,10.667-10.667S261.896,173.177,256,173.177z" data-original="#000000" class="active-path" data-old_color="#000000" fill="#C12020"/>
			<path d="M469.333,384v-10.667c0-5.896-4.771-10.667-10.667-10.667H53.333c-5.896,0-10.667,4.771-10.667,10.667V384     C19.135,384,0,403.135,0,426.667v32c0,5.896,4.771,10.667,10.667,10.667h490.667c5.896,0,10.667-4.771,10.667-10.667v-32     C512,403.135,492.865,384,469.333,384z M490.667,448H21.333v-21.333c0-11.76,9.573-21.333,21.333-21.333h10.667     c5.896,0,10.667-4.771,10.667-10.667V384h384v10.667c0,5.896,4.771,10.667,10.667,10.667h10.667     c11.76,0,21.333,9.573,21.333,21.333V448z" data-original="#000000" class="active-path" data-old_color="#000000" fill="#C12020"/>
		</g>
	</g>
</g></g> </svg>
