<?xml version="1.0"?>
<svg xmlns="http://www.w3.org/2000/svg" id="Outline" viewBox="0 0 512 512" width="512px" height="512px"><g><path d="M368,112H304a8,8,0,0,0,0,16h64a8,8,0,0,0,0-16Z" data-original="#000000" class="active-path" data-old_color="#000000" fill="#0EC241"/><path d="M336,336H304a8,8,0,0,0,0,16h32a8,8,0,0,0,0-16Z" data-original="#000000" class="active-path" data-old_color="#000000" fill="#0EC241"/><path d="M232,96H80a8,8,0,0,0-5.657,2.343l-32,32a8,8,0,0,0,0,11.314l32,32A8,8,0,0,0,80,176H232v32H112a8,8,0,0,0-5.657,2.343l-32,32a8,8,0,0,0,0,11.314l32,32A8,8,0,0,0,112,288H232V488a8,8,0,0,0,8,8h32a8,8,0,0,0,8-8V384h88a8,8,0,0,0,5.657-2.343l32-32a8,8,0,0,0,0-11.314l-32-32A8,8,0,0,0,368,304H280V272H432a8,8,0,0,0,5.657-2.343l32-32a8,8,0,0,0,0-11.314l-32-32A8,8,0,0,0,432,192H280V160H400a8,8,0,0,0,5.657-2.343l32-32a8,8,0,0,0,0-11.314l-32-32A8,8,0,0,0,400,80H280V56a7.972,7.972,0,0,0-2.346-5.659,24,24,0,1,0-43.308,0A7.972,7.972,0,0,0,232,56Zm0,176H115.313l-24-24,24-24H232Zm0-112H83.313l-24-24,24-24H232Zm48-64H396.687l24,24-24,24H280Zm0,112H428.687l24,24-24,24H280Zm0,112h84.687l24,24-24,24H280ZM256,32a8,8,0,1,1-8,8A8.009,8.009,0,0,1,256,32Zm-8,32h16V480H248Z" data-original="#000000" class="active-path" data-old_color="#000000" fill="#0EC241"/><path d="M400,224H304a8,8,0,0,0,0,16h96a8,8,0,0,0,0-16Z" data-original="#000000" class="active-path" data-old_color="#000000" fill="#0EC241"/><path d="M112,144h96a8,8,0,0,0,0-16H112a8,8,0,0,0,0,16Z" data-original="#000000" class="active-path" data-old_color="#000000" fill="#0EC241"/><path d="M144,256h64a8,8,0,0,0,0-16H144a8,8,0,0,0,0,16Z" data-original="#000000" class="active-path" data-old_color="#000000" fill="#0EC241"/></g> </svg>
